Coordinates
version=1
nRows=12
nColumns=41
inDegrees=yes

Units are S.I. units (second, meters, Newtons, ...)
If the header above contains a line with 'inDegrees', this indicates whether rotational values are in degrees (yes) or radians (no).

endheader
time	pelvis_tilt	pelvis_list	pelvis_rotation	pelvis_tx	pelvis_ty	pelvis_tz	hip_flexion_r	hip_adduction_r	hip_rotation_r	knee_angle_r	ankle_angle_r	subtalar_angle_r	mtp_angle_r	hip_flexion_l	hip_adduction_l	hip_rotation_l	knee_angle_l	ankle_angle_l	subtalar_angle_l	mtp_angle_l	L5_S1_Flex_Ext	L5_S1_Lat_Bending	L5_S1_axial_rotation	neck_flexion	neck_bending	neck_rotation	arm_flex_r	arm_add_r	arm_rot_r	elbow_flex_r	pro_sup_r	wrist_flex_r	wrist_dev_r	arm_flex_l	arm_add_l	arm_rot_l	elbow_flex_l	pro_sup_l	wrist_flex_l	wrist_dev_l
     13.20000000	     -3.06071650	      3.40602044	    -83.72368975	      0.14251387	      1.05712491	      0.03039674	      1.06661235	      1.14387052	      0.02777334	      0.00000000	     10.95510431	    -10.10509843	      0.00000000	      0.40783795	     -4.02338428	      0.76225401	      0.00000000	     13.04620531	     -2.90098019	      0.00000000	     -0.05663706	      2.35595236	      0.19395907	      0.00000000	      0.00000000	      0.00000002	      6.41718819	    -11.09389075	    -49.16791451	     13.34762026	     82.78289158	      0.00000000	      0.00000000	      4.49310964	    -14.10568112	    -42.18642884	     16.89629023	     70.03163569	      0.00000000	      0.00000000
     13.22000000	     -3.11776877	      3.46760990	    -83.55702343	      0.14274008	      1.05680296	      0.02805200	      1.18755550	      1.19998665	     -0.42250514	      0.00000000	     11.15108048	     -9.33679672	      0.00000000	      0.58903478	     -4.08701727	      1.15688305	      0.00000000	     12.87496397	     -3.39258201	      0.00000000	     -0.05731612	      2.41919261	      0.16085771	      0.00000000	      0.00000000	      0.00000002	      7.09871656	    -11.23930810	    -52.43198747	     13.50052359	    102.98085318	      0.00000000	      0.00000000	      5.73353034	    -13.75933296	    -51.57768473	     16.94011581	     93.56990115	      0.00000000	      0.00000000
     13.24000000	     -3.07220942	      3.44285437	    -83.46896012	      0.14204703	      1.05658197	      0.02608883	      1.20899122	      1.18236859	     -0.38377632	      0.00000000	     11.18955646	     -9.31254217	      0.00000000	      0.64662916	     -4.06645055	      1.16286249	      0.00000000	     12.82557074	     -3.38643711	      0.00000000	     -0.05679442	      2.33531208	      0.17916169	      0.00000000	      0.00000000	      0.00000002	      7.87559907	    -11.23139041	    -52.40785290	     13.80230301	    102.98111825	      0.00000000	      0.00000000	      6.56563488	    -13.91931424	    -51.47136310	     17.26237561	     93.59972938	      0.00000000	      0.00000000
     13.26000000	     -3.04513482	      3.35615085	    -83.39100695	      0.14097977	      1.05649614	      0.02492107	      1.15779544	      1.19777637	     -0.34852833	      0.00000000	     11.19009009	     -9.27600291	      0.00000000	      0.63054390	     -4.07322777	      1.14464531	      0.00000000	     12.81629043	     -3.40266872	      0.00000000	     -0.05836211	      2.28860734	      0.17521535	      0.00000000	      0.00000000	      0.00000002	      8.68045160	    -11.33341441	    -52.34322083	     14.11150096	    102.98994893	      0.00000000	      0.00000000	      7.41361566	    -14.15695862	    -51.37907811	     17.60466295	     93.61992590	      0.00000000	      0.00000000
     13.28000000	     -2.93816503	      3.41759817	    -83.15920482	      0.13993547	      1.05657622	      0.02429384	      1.23590477	      1.12784503	     -0.47334487	      0.00000000	     11.13889729	     -9.21221026	      0.00000000	      0.80296608	     -3.98134080	      1.40694474	      0.00000000	     12.47758957	     -3.80567418	      0.00000000	     -0.05188235	      1.92750838	      0.87160082	      0.00000000	      0.00000000	      0.00000002	      8.74177278	    -11.19371352	    -51.56496677	     15.54885722	    103.12452390	      0.00000000	      0.00000000	      8.48991490	    -14.07190045	    -50.12035685	     18.99823678	     93.98243861	      0.00000000	      0.00000000
     13.30000000	     -2.95577629	      3.26668156	    -83.03367226	      0.13917545	      1.05741261	      0.02415666	      1.08027215	      1.23079420	     -0.35655079	      0.00000000	     11.12773238	     -9.15150329	      0.00000000	      0.72280247	     -4.06276889	      1.35441327	      0.00000000	     12.43089655	     -3.81099135	      0.00000000	     -0.05557884	      1.87093409	      0.80892206	      0.00000000	      0.00000000	      0.00000002	      9.60049258	    -11.28965649	    -51.45479558	     15.88226382	    103.13679710	      0.00000000	      0.00000000	      9.39198641	    -14.32642825	    -49.98996510	     19.35966005	     94.00675272	      0.00000000	      0.00000000
     13.32000000	     -2.95757202	      3.25787677	    -82.83086762	      0.13910689	      1.05855390	      0.02409936	      1.05239575	      1.30546242	     -0.20722872	      0.00000000	     10.88093307	     -9.42461561	      0.00000000	      0.79977588	     -4.10081661	      1.53629829	      0.00000000	     11.99971289	     -4.16180389	      0.00000000	     -0.05974760	      1.66158060	      1.07866793	      0.00000000	      0.00000000	      0.00000002	      9.44425734	    -11.06148234	    -48.91605442	     18.43060696	    103.37137532	      0.00000000	      0.00000000	      9.75057463	    -14.41047016	    -46.94039452	     21.63692394	     94.66456784	      0.00000000	      0.00000000
     13.34000000	     -2.91130704	      3.02013052	    -82.68005235	      0.13989623	      1.06028617	      0.02391250	      0.76633279	      1.32637220	     -0.23463698	      0.00000000	     10.71389295	     -9.38128673	      0.00000000	      0.61552834	     -4.07633607	      1.39942848	      0.00000000	     11.72235713	     -4.09733313	      0.00000000	     -0.05486498	      1.57808169	      0.98117997	      0.00000000	      0.00000000	      0.00000002	     10.36540502	    -11.13133947	    -48.67362595	     18.81741866	    103.37345224	      0.00000000	      0.00000000	     10.72671675	    -14.47667772	    -46.66668527	     22.06423197	     94.69723067	      0.00000000	      0.00000000
     13.36000000	     -2.88417878	      2.96530189	    -82.60228441	      0.14079370	      1.06162962	      0.02373915	      0.67399825	      1.32578797	     -0.07478191	      0.00000000	     10.21370103	     -9.71362061	      0.00000000	      0.60671529	     -4.02728322	      1.21749284	      0.00000000	     11.24047978	     -4.11591902	      0.00000000	     -0.05443603	      1.42774107	      1.01372964	      0.00000000	      0.00000000	      0.00000002	     10.23112870	    -11.58396660	    -43.24713653	     21.12829054	    102.58890659	      0.00000000	      0.00000000	     10.69337499	    -15.02121342	    -40.79738100	     24.27357139	     94.98786006	      0.00000000	      0.00000000
     13.38000000	     -2.82080794	      2.81067611	    -82.44367094	      0.14174461	      1.06248154	      0.02333169	      0.45365404	      1.27652524	     -0.27417293	      0.00000000	      9.83973090	     -9.88357326	      0.00000000	      0.49476996	     -3.92886122	      1.18059786	      0.00000000	     11.01368643	     -3.99015366	      0.00000000	     -0.05251872	      1.25006280	      1.11873256	      0.00000000	      0.00000000	      0.00000002	     10.40301498	    -11.67835484	    -42.23811644	     23.44095774	    102.01792990	      0.00000000	      0.00000000	     11.26245863	    -14.87623088	    -39.74606980	     26.65561880	     94.75188945	      0.00000000	      0.00000000
     13.40000000	     -2.78013863	      2.68447722	    -82.49019608	      0.14212691	      1.06270213	      0.02261830	      0.26538273	      1.23185598	      0.03256055	      0.00000000	      9.51295776	     -9.99935350	      0.00000000	      0.39040134	     -3.83786332	      0.88840500	      0.00000000	     10.80444744	     -3.91572857	      0.00000000	     -0.05385942	      1.23549909	      0.91494364	      0.00000000	      0.00000000	      0.00000002	     10.57691015	    -11.73162850	    -40.27649010	     26.69945898	    101.16172161	      0.00000000	      0.00000000	     11.37473865	    -15.01062615	    -37.50371082	     29.38480369	     94.51972655	      0.00000000	      0.00000000
     13.42000000	     -2.69754268	      2.55829177	    -82.40952786	      0.14237534	      1.06258075	      0.02140719	      0.07705482	      1.14449238	     -0.06569750	      0.00000000	      9.14507539	    -10.20724880	      0.00000000	      0.32960199	     -3.70755176	      0.77817039	      0.00000000	     10.69416270	     -3.68244891	      0.00000000	     -0.05101018	      1.09055233	      0.81570622	      0.00000000	      0.00000000	      0.00000002	     10.73461211	    -12.00095484	    -38.07343700	     30.25499821	    100.10675624	      0.00000000	      0.00000000	     11.66446389	    -15.25373940	    -35.03194244	     32.43950774	     94.19063207	      0.00000000	      0.00000000
